<mxfile host="Electron" agent="Mozilla/5.0 (Windows NT 10.0; Win64; x64) AppleWebKit/537.36 (KHTML, like Gecko) draw.io/25.0.1 Chrome/128.0.6613.186 Electron/32.2.6 Safari/537.36" version="25.0.1">
  <diagram id="C5RBs43oDa-KdzZeNtuy" name="Page-1">
    <mxGraphModel dx="1098" dy="988" grid="1" gridSize="10" guides="1" tooltips="1" connect="1" arrows="1" fold="1" page="1" pageScale="1" pageWidth="827" pageHeight="1169" math="0" shadow="0">
      <root>
        <mxCell id="WIyWlLk6GJQsqaUBKTNV-0" />
        <mxCell id="WIyWlLk6GJQsqaUBKTNV-1" parent="WIyWlLk6GJQsqaUBKTNV-0" />
        <mxCell id="K_TS8spDXxeCLEvKYJLt-0" value="showAllUsers()" style="rounded=1;whiteSpace=wrap;html=1;" vertex="1" parent="WIyWlLk6GJQsqaUBKTNV-1">
          <mxGeometry x="120" y="80" width="110" height="40" as="geometry" />
        </mxCell>
        <mxCell id="K_TS8spDXxeCLEvKYJLt-1" value="read adminPassword" style="rounded=1;whiteSpace=wrap;html=1;" vertex="1" parent="WIyWlLk6GJQsqaUBKTNV-1">
          <mxGeometry x="120" y="120" width="110" height="40" as="geometry" />
        </mxCell>
        <mxCell id="K_TS8spDXxeCLEvKYJLt-2" style="edgeStyle=orthogonalEdgeStyle;rounded=0;orthogonalLoop=1;jettySize=auto;html=1;" edge="1" parent="WIyWlLk6GJQsqaUBKTNV-1" target="K_TS8spDXxeCLEvKYJLt-5">
          <mxGeometry relative="1" as="geometry">
            <mxPoint x="238" y="260" as="sourcePoint" />
          </mxGeometry>
        </mxCell>
        <mxCell id="K_TS8spDXxeCLEvKYJLt-3" value="False" style="edgeLabel;html=1;align=center;verticalAlign=middle;resizable=0;points=[];" vertex="1" connectable="0" parent="K_TS8spDXxeCLEvKYJLt-2">
          <mxGeometry x="0.1195" relative="1" as="geometry">
            <mxPoint as="offset" />
          </mxGeometry>
        </mxCell>
        <mxCell id="K_TS8spDXxeCLEvKYJLt-4" style="edgeStyle=orthogonalEdgeStyle;rounded=0;orthogonalLoop=1;jettySize=auto;html=1;entryX=0.5;entryY=0;entryDx=0;entryDy=0;entryPerimeter=0;" edge="1" parent="WIyWlLk6GJQsqaUBKTNV-1" source="K_TS8spDXxeCLEvKYJLt-1">
          <mxGeometry relative="1" as="geometry">
            <mxPoint x="175" y="200" as="targetPoint" />
          </mxGeometry>
        </mxCell>
        <mxCell id="K_TS8spDXxeCLEvKYJLt-10" style="edgeStyle=orthogonalEdgeStyle;rounded=0;orthogonalLoop=1;jettySize=auto;html=1;" edge="1" parent="WIyWlLk6GJQsqaUBKTNV-1" source="K_TS8spDXxeCLEvKYJLt-5" target="K_TS8spDXxeCLEvKYJLt-7">
          <mxGeometry relative="1" as="geometry" />
        </mxCell>
        <mxCell id="K_TS8spDXxeCLEvKYJLt-5" value="print &quot;Not authorized&quot;" style="rounded=1;whiteSpace=wrap;html=1;" vertex="1" parent="WIyWlLk6GJQsqaUBKTNV-1">
          <mxGeometry x="304" y="240" width="110" height="40" as="geometry" />
        </mxCell>
        <mxCell id="K_TS8spDXxeCLEvKYJLt-13" style="edgeStyle=orthogonalEdgeStyle;rounded=0;orthogonalLoop=1;jettySize=auto;html=1;entryX=0.5;entryY=0;entryDx=0;entryDy=0;" edge="1" parent="WIyWlLk6GJQsqaUBKTNV-1" source="K_TS8spDXxeCLEvKYJLt-6" target="K_TS8spDXxeCLEvKYJLt-12">
          <mxGeometry relative="1" as="geometry" />
        </mxCell>
        <mxCell id="K_TS8spDXxeCLEvKYJLt-6" value="passwordIsCorrect" style="strokeWidth=2;html=1;shape=mxgraph.flowchart.decision;whiteSpace=wrap;" vertex="1" parent="WIyWlLk6GJQsqaUBKTNV-1">
          <mxGeometry x="112.5" y="200" width="125" height="120" as="geometry" />
        </mxCell>
        <mxCell id="K_TS8spDXxeCLEvKYJLt-7" value="print &quot;press enter to continue&quot;" style="rounded=1;whiteSpace=wrap;html=1;" vertex="1" parent="WIyWlLk6GJQsqaUBKTNV-1">
          <mxGeometry x="470" y="240" width="110" height="40" as="geometry" />
        </mxCell>
        <mxCell id="K_TS8spDXxeCLEvKYJLt-8" value="Stop" style="rounded=1;whiteSpace=wrap;html=1;" vertex="1" parent="WIyWlLk6GJQsqaUBKTNV-1">
          <mxGeometry x="810" y="410" width="110" height="40" as="geometry" />
        </mxCell>
        <mxCell id="K_TS8spDXxeCLEvKYJLt-11" style="edgeStyle=orthogonalEdgeStyle;rounded=0;orthogonalLoop=1;jettySize=auto;html=1;entryX=0.5;entryY=0;entryDx=0;entryDy=0;" edge="1" parent="WIyWlLk6GJQsqaUBKTNV-1" source="K_TS8spDXxeCLEvKYJLt-9" target="K_TS8spDXxeCLEvKYJLt-8">
          <mxGeometry relative="1" as="geometry" />
        </mxCell>
        <mxCell id="K_TS8spDXxeCLEvKYJLt-9" value="ReadKey()" style="rounded=1;whiteSpace=wrap;html=1;" vertex="1" parent="WIyWlLk6GJQsqaUBKTNV-1">
          <mxGeometry x="580" y="240" width="110" height="40" as="geometry" />
        </mxCell>
        <mxCell id="K_TS8spDXxeCLEvKYJLt-15" style="edgeStyle=orthogonalEdgeStyle;rounded=0;orthogonalLoop=1;jettySize=auto;html=1;entryX=0.5;entryY=0;entryDx=0;entryDy=0;" edge="1" parent="WIyWlLk6GJQsqaUBKTNV-1" source="K_TS8spDXxeCLEvKYJLt-12" target="K_TS8spDXxeCLEvKYJLt-14">
          <mxGeometry relative="1" as="geometry" />
        </mxCell>
        <mxCell id="K_TS8spDXxeCLEvKYJLt-12" value="Users[] userArray = users.ToArray()" style="rounded=1;whiteSpace=wrap;html=1;" vertex="1" parent="WIyWlLk6GJQsqaUBKTNV-1">
          <mxGeometry x="120" y="370" width="110" height="40" as="geometry" />
        </mxCell>
        <mxCell id="K_TS8spDXxeCLEvKYJLt-16" style="edgeStyle=orthogonalEdgeStyle;rounded=0;orthogonalLoop=1;jettySize=auto;html=1;entryX=0.5;entryY=1;entryDx=0;entryDy=0;" edge="1" parent="WIyWlLk6GJQsqaUBKTNV-1" source="K_TS8spDXxeCLEvKYJLt-14" target="K_TS8spDXxeCLEvKYJLt-8">
          <mxGeometry relative="1" as="geometry" />
        </mxCell>
        <mxCell id="K_TS8spDXxeCLEvKYJLt-14" value="Call printUsers(userArray)" style="rounded=1;whiteSpace=wrap;html=1;" vertex="1" parent="WIyWlLk6GJQsqaUBKTNV-1">
          <mxGeometry x="120" y="460" width="110" height="40" as="geometry" />
        </mxCell>
      </root>
    </mxGraphModel>
  </diagram>
</mxfile>
